<?xml version="1.0" encoding="UTF-8" standalone="no"?>
<!-- Created with Inkscape (http://www.inkscape.org/) -->

<svg
   xmlns:dc="http://purl.org/dc/elements/1.1/"
   xmlns:cc="http://creativecommons.org/ns#"
   xmlns:rdf="http://www.w3.org/1999/02/22-rdf-syntax-ns#"
   xmlns:svg="http://www.w3.org/2000/svg"
   xmlns="http://www.w3.org/2000/svg"
   xmlns:sodipodi="http://sodipodi.sourceforge.net/DTD/sodipodi-0.dtd"
   xmlns:inkscape="http://www.inkscape.org/namespaces/inkscape"
   width="650"
   height="450"
   id="svg2"
   version="1.1"
   inkscape:version="0.47 r22583"
   sodipodi:docname="Documento nuevo 1">
  <defs
     id="defs4">
    <inkscape:perspective
       sodipodi:type="inkscape:persp3d"
       inkscape:vp_x="0 : 526.18109 : 1"
       inkscape:vp_y="0 : 1000 : 0"
       inkscape:vp_z="744.09448 : 526.18109 : 1"
       inkscape:persp3d-origin="372.04724 : 350.78739 : 1"
       id="perspective10" />
    <inkscape:perspective
       id="perspective3602"
       inkscape:persp3d-origin="0.5 : 0.33333333 : 1"
       inkscape:vp_z="1 : 0.5 : 1"
       inkscape:vp_y="0 : 1000 : 0"
       inkscape:vp_x="0 : 0.5 : 1"
       sodipodi:type="inkscape:persp3d" />
    <inkscape:perspective
       id="perspective3602-3"
       inkscape:persp3d-origin="0.5 : 0.33333333 : 1"
       inkscape:vp_z="1 : 0.5 : 1"
       inkscape:vp_y="0 : 1000 : 0"
       inkscape:vp_x="0 : 0.5 : 1"
       sodipodi:type="inkscape:persp3d" />
    <inkscape:perspective
       id="perspective3640"
       inkscape:persp3d-origin="0.5 : 0.33333333 : 1"
       inkscape:vp_z="1 : 0.5 : 1"
       inkscape:vp_y="0 : 1000 : 0"
       inkscape:vp_x="0 : 0.5 : 1"
       sodipodi:type="inkscape:persp3d" />
  </defs>
  <sodipodi:namedview
     id="base"
     pagecolor="#ffffff"
     bordercolor="#666666"
     borderopacity="1.0"
     inkscape:pageopacity="0.0"
     inkscape:pageshadow="2"
     inkscape:zoom="0.68769531"
     inkscape:cx="230.94821"
     inkscape:cy="110.48151"
     inkscape:document-units="px"
     inkscape:current-layer="layer1"
     showgrid="false"
     inkscape:window-width="1280"
     inkscape:window-height="726"
     inkscape:window-x="0"
     inkscape:window-y="25"
     inkscape:window-maximized="1" />
  <metadata
     id="metadata7">
    <rdf:RDF>
      <cc:Work
         rdf:about="">
        <dc:format>image/svg+xml</dc:format>
        <dc:type
           rdf:resource="http://purl.org/dc/dcmitype/StillImage" />
        <dc:title></dc:title>
      </cc:Work>
    </rdf:RDF>
  </metadata>
  <g
     inkscape:label="Capa 1"
     inkscape:groupmode="layer"
     id="layer1"
     transform="translate(-55.109848,-192.84369)">
    <g
       id="g3754"
       transform="translate(10.560889,-23.783385)">
      <path
         id="path2816"
         d="m 100.33513,242.41046 0,350.4459 581.65294,0 -581.65294,-350.4459 z"
         style="color:#000000;fill:none;stroke:#000000;stroke-width:4;stroke-linecap:butt;stroke-linejoin:miter;stroke-miterlimit:4;stroke-opacity:1;stroke-dasharray:none;stroke-dashoffset:0;marker:none;visibility:visible;display:inline;overflow:visible;enable-background:accumulate" />
      <g
         id="text3590"
         style="font-size:56px;font-style:normal;font-variant:normal;font-weight:normal;font-stretch:normal;text-align:center;line-height:100%;writing-mode:lr-tb;text-anchor:middle;fill:#000000;fill-opacity:1;stroke:none;font-family:Liberation Sans;-inkscape-font-specification:Liberation Sans"
         transform="matrix(0.8584817,0.51284419,-0.51284419,0.8584817,0,0)">
        <path
           id="path3699"
           d="m 413.5343,118.60414 c 0.54687,-1.00258 1.13931,-1.85023 1.77735,-2.54297 0.63801,-0.71091 1.33983,-1.29424 2.10546,-1.75 0.76562,-0.4557 1.60416,-0.78382 2.51563,-0.98437 0.91144,-0.21872 1.93227,-0.3281 3.0625,-0.32813 1.89581,3e-5 3.44529,0.25524 4.64844,0.76563 1.22133,0.51044 2.17836,1.23049 2.87109,2.16015 0.71091,0.91149 1.19398,2.00524 1.44922,3.28125 0.27341,1.27607 0.41013,2.67971 0.41016,4.21094 l 0,19.71484 -4.94922,0 0,-18.75781 c -3e-5,-1.25779 -0.0821,-2.36065 -0.2461,-3.30859 -0.14585,-0.94789 -0.43752,-1.73175 -0.875,-2.35156 -0.43752,-0.638 -1.05731,-1.11196 -1.85937,-1.42188 -0.8021,-0.3281 -1.84117,-0.49216 -3.11719,-0.49219 -1.16668,3e-5 -2.22397,0.20967 -3.17187,0.62891 -0.9297,0.4193 -1.73179,1.01174 -2.40625,1.77734 -0.65626,0.76565 -1.16668,1.69534 -1.53125,2.78907 -0.3646,1.09377 -0.54689,2.32423 -0.54688,3.6914 l 0,17.44531 -4.92187,0 0,-40.57812 4.92187,0 0,10.55469 c -10e-6,0.60159 -0.009,1.20315 -0.0273,1.80468 -0.0182,0.6016 -0.0456,1.15758 -0.082,1.66797 -0.0182,0.51045 -0.0365,0.94795 -0.0547,1.3125 -0.0182,0.34638 -0.0365,0.58336 -0.0547,0.71094 l 0.082,0" />
        <path
           id="path3701"
           d="m 439.7843,107.25648 0,-4.70312 4.92188,0 0,4.70312 -4.92188,0 m 0,35.875 0,-29.58593 4.92188,0 0,29.58593 -4.92188,0" />
        <path
           id="path3703"
           d="m 477.29993,128.2018 c -3e-5,2.2422 -0.18232,4.31121 -0.54688,6.20703 -0.36461,1.89584 -0.97529,3.52735 -1.83203,4.89453 -0.83857,1.36719 -1.95966,2.44271 -3.36328,3.22656 -1.38544,0.76563 -3.09898,1.14844 -5.14063,1.14844 -2.11459,0 -3.96485,-0.40104 -5.55078,-1.20313 -1.58595,-0.80208 -2.79818,-2.11458 -3.63672,-3.9375 l -0.13671,0 c 0.0182,0.0365 0.0273,0.20053 0.0273,0.49219 0.0182,0.29167 0.0273,0.65626 0.0273,1.09375 0.0182,0.43751 0.0273,0.92969 0.0274,1.47656 0.0182,0.52865 0.0273,1.0573 0.0273,1.58594 l 0,11.56641 -4.92187,0 0,-35.16406 c -10e-6,-0.71092 -0.009,-1.39451 -0.0274,-2.05079 0,-0.65622 -0.009,-1.24867 -0.0273,-1.77734 -0.0182,-0.54685 -0.0365,-1.01169 -0.0547,-1.39453 -0.0182,-0.38278 -0.0365,-0.65622 -0.0547,-0.82031 l 4.75782,0 c 0.0182,0.0547 0.0365,0.24612 0.0547,0.57422 0.0365,0.32815 0.0638,0.72919 0.082,1.20312 0.0365,0.45576 0.0638,0.94794 0.082,1.47656 0.0365,0.52868 0.0547,1.02998 0.0547,1.50391 l 0.10938,0 c 0.45572,-0.94789 0.97525,-1.74997 1.55859,-2.40625 0.58332,-0.67445 1.24869,-1.22133 1.9961,-1.64063 0.74738,-0.43747 1.5768,-0.74736 2.48828,-0.92968 0.92967,-0.20049 1.96873,-0.30075 3.11718,-0.30078 2.04165,3e-5 3.75519,0.36461 5.14063,1.09375 1.40362,0.72919 2.52471,1.75914 3.36328,3.08984 0.85674,1.31252 1.46742,2.90758 1.83203,4.78516 0.36456,1.85939 0.54685,3.9284 0.54688,6.20703 m -5.16797,0.10937 c -3e-5,-1.8229 -0.1094,-3.44529 -0.32813,-4.86719 -0.21877,-1.42185 -0.60158,-2.62497 -1.14843,-3.60937 -0.52867,-0.98435 -1.23961,-1.73175 -2.13282,-2.24219 -0.89325,-0.51039 -2.01434,-0.7656 -3.36328,-0.76562 -1.09376,2e-5 -2.12371,0.15497 -3.08984,0.46484 -0.96616,0.30992 -1.81382,0.90237 -2.54297,1.77734 -0.71095,0.87503 -1.27605,2.08727 -1.69531,3.63672 -0.41928,1.53127 -0.62892,3.52736 -0.62891,5.98828 -10e-6,2.09637 0.17317,3.87371 0.51953,5.33204 0.34635,1.44011 0.84765,2.60677 1.50391,3.5 0.67447,0.89323 1.50389,1.54036 2.48828,1.9414 0.98436,0.38282 2.11457,0.57422 3.39062,0.57422 1.36717,0 2.49738,-0.26432 3.39063,-0.79297 0.91144,-0.52864 1.63149,-1.29426 2.16016,-2.29687 0.54685,-1.0026 0.92966,-2.22395 1.14843,-3.66407 0.21873,-1.45832 0.3281,-3.11717 0.32813,-4.97656" />
        <path
           id="path3705"
           d="m 508.4718,128.31117 c -3e-5,5.1771 -1.13935,9.03256 -3.41797,11.56641 -2.27867,2.53385 -5.58726,3.80078 -9.92578,3.80078 -2.05991,0 -3.90105,-0.3099 -5.52344,-0.92969 -1.6224,-0.61979 -2.9987,-1.5677 -4.1289,-2.84375 -1.11199,-1.27603 -1.96876,-2.87109 -2.57031,-4.78515 -0.58334,-1.93229 -0.87501,-4.20181 -0.875,-6.8086 -10e-6,-10.20831 4.42056,-15.31247 13.26171,-15.3125 2.29686,3e-5 4.27472,0.31904 5.9336,0.95703 1.67706,0.63805 3.04424,1.59508 4.10156,2.8711 1.07549,1.27606 1.86846,2.87111 2.37891,4.78515 0.51038,1.91409 0.76559,4.14716 0.76562,6.69922 m -5.16797,0 c -2e-5,-2.29686 -0.18231,-4.19269 -0.54687,-5.6875 -0.34638,-1.49477 -0.86591,-2.68878 -1.5586,-3.58203 -0.6745,-0.8932 -1.50392,-1.51299 -2.48828,-1.85937 -0.98439,-0.36456 -2.09637,-0.54685 -3.33593,-0.54688 -1.25783,3e-5 -2.39715,0.19143 -3.41797,0.57422 -1.00262,0.36461 -1.85939,1.00263 -2.57032,1.91406 -0.71094,0.89325 -1.25782,2.08726 -1.64062,3.58203 -0.36459,1.49481 -0.54688,3.3633 -0.54688,5.60547 0,2.29689 0.20052,4.20184 0.60157,5.71485 0.40103,1.4948 0.9479,2.6888 1.64062,3.58203 0.71093,0.89323 1.54036,1.52214 2.48828,1.88672 0.96614,0.36458 2.01431,0.54687 3.14453,0.54687 1.2578,0 2.39712,-0.17317 3.41797,-0.51953 1.02082,-0.36458 1.8867,-0.99348 2.59766,-1.88672 0.71091,-0.89322 1.25779,-2.09635 1.64062,-3.60937 0.38279,-1.51301 0.5742,-3.41796 0.57422,-5.71485" />
        <path
           id="path3707"
           d="m 525.99915,142.91273 c -0.74741,0.20053 -1.51304,0.35547 -2.29688,0.46485 -0.76564,0.1276 -1.65886,0.1914 -2.67969,0.1914 -3.9375,0 -5.90625,-2.23307 -5.90625,-6.69921 l 0,-19.74219 -3.41797,0 0,-3.58203 3.60938,0 1.44922,-6.61719 3.28125,0 0,6.61719 5.46875,0 0,3.58203 -5.46875,0 0,18.67578 c -1e-5,1.42188 0.22785,2.42448 0.68359,3.00781 0.47395,0.56511 1.28515,0.84766 2.4336,0.84766 0.47394,0 0.92967,-0.0365 1.36718,-0.10938 0.45572,-0.0729 0.94791,-0.16406 1.47657,-0.27343 l 0,3.63671" />
        <path
           id="path3709"
           d="m 533.92883,129.37758 c 0,1.54949 0.15494,2.98048 0.46485,4.29297 0.32811,1.29428 0.8203,2.41537 1.47656,3.36328 0.67447,0.92969 1.53124,1.65886 2.57031,2.1875 1.03905,0.51042 2.28775,0.76563 3.7461,0.76562 2.13279,1e-5 3.83722,-0.42838 5.11328,-1.28515 1.29425,-0.85677 2.16924,-1.9414 2.625,-3.25391 l 4.32031,1.23047 c -0.30992,0.82032 -0.74742,1.64974 -1.3125,2.48828 -0.5469,0.82032 -1.28518,1.56771 -2.21484,2.24219 -0.92972,0.65625 -2.09638,1.20312 -3.5,1.64062 -1.38544,0.41927 -3.06252,0.62891 -5.03125,0.62891 -4.37502,0 -7.71095,-1.30338 -10.00782,-3.91016 -2.27865,-2.60676 -3.41797,-6.48046 -3.41797,-11.62109 0,-2.77082 0.34636,-5.11326 1.03907,-7.02734 0.6927,-1.93227 1.64062,-3.49998 2.84375,-4.70313 1.20311,-1.2031 2.60676,-2.06898 4.21093,-2.59766 1.60416,-0.54684 3.3177,-0.82028 5.14063,-0.82031 2.47915,3e-5 4.54816,0.40107 6.20703,1.20313 1.67706,0.80211 3.0169,1.91409 4.01953,3.33593 1.02081,1.40368 1.74086,3.06253 2.16016,4.97657 0.43747,1.91408 0.65622,3.98309 0.65625,6.20703 l 0,0.65625 -21.10938,0 m 16.02344,-3.77344 c -0.27346,-3.11717 -1.06643,-5.38669 -2.37891,-6.80859 -1.31252,-1.44008 -3.19923,-2.16013 -5.66015,-2.16016 -0.82033,3e-5 -1.68621,0.13675 -2.59766,0.41016 -0.89324,0.25523 -1.72267,0.72007 -2.48828,1.39453 -0.76563,0.6745 -1.41277,1.59507 -1.94141,2.76172 -0.52865,1.14846 -0.82943,2.6159 -0.90234,4.40234 l 15.96875,0" />
        <path
           id="path3711"
           d="m 580.11243,143.13148 0,-18.75781 c -3e-5,-1.44008 -0.1094,-2.64321 -0.32813,-3.60937 -0.20054,-0.96613 -0.53778,-1.74086 -1.01172,-2.32422 -0.47398,-0.60154 -1.10288,-1.02081 -1.88672,-1.25781 -0.76564,-0.25519 -1.72267,-0.38279 -2.87109,-0.38282 -1.16668,3e-5 -2.22397,0.20967 -3.17187,0.62891 -0.9297,0.40107 -1.73179,0.99351 -2.40625,1.77734 -0.65626,0.76565 -1.16668,1.72268 -1.53125,2.8711 -0.3646,1.13023 -0.54689,2.43361 -0.54688,3.91015 l 0,17.14453 -4.92187,0 0,-23.26953 c -10e-6,-0.61976 -0.009,-1.2669 -0.0273,-1.9414 0,-0.69268 -0.009,-1.33982 -0.0273,-1.94141 -0.0182,-0.61976 -0.0365,-1.14841 -0.0547,-1.58594 -0.0182,-0.43747 -0.0365,-0.72002 -0.0547,-0.84765 l 4.64844,0 c 0.0182,0.0912 0.0364,0.33727 0.0547,0.73828 0.0182,0.40107 0.0364,0.86591 0.0547,1.39453 0.0365,0.51044 0.0638,1.03909 0.082,1.58594 0.0182,0.52867 0.0273,0.97528 0.0273,1.33984 l 0.082,0 c 0.47395,-0.85674 0.99348,-1.63148 1.5586,-2.32422 0.56509,-0.69268 1.22134,-1.27601 1.96875,-1.75 0.74738,-0.49216 1.60415,-0.86585 2.57031,-1.12109 0.96613,-0.27341 2.08722,-0.41013 3.36328,-0.41016 1.6406,3e-5 3.05336,0.20055 4.23828,0.60156 1.18487,0.40108 2.16013,1.02087 2.92578,1.85938 0.7656,0.83857 1.32159,1.9232 1.66797,3.25391 0.36456,1.31252 0.54685,2.88023 0.54688,4.70312 l 0,19.71484 -4.94922,0" />
        <path
           id="path3713"
           d="m 597.31165,113.54555 0,18.75781 c -10e-6,1.44011 0.10025,2.64324 0.30078,3.60937 0.21874,0.96616 0.56509,1.75001 1.03906,2.35157 0.47395,0.58334 1.09374,1.00261 1.85937,1.25781 0.78385,0.23698 1.74999,0.35547 2.89844,0.35547 1.16665,0 2.21483,-0.20052 3.14453,-0.60156 0.9479,-0.41927 1.74998,-1.01172 2.40625,-1.77735 0.67446,-0.78385 1.19399,-1.74088 1.5586,-2.87109 0.36456,-1.14843 0.54685,-2.46093 0.54687,-3.9375 l 0,-17.14453 4.92188,0 0,23.26953 c -3e-5,0.6198 -3e-5,1.27605 0,1.96875 0.0182,0.67448 0.0364,1.32162 0.0547,1.9414 0.0182,0.60157 0.0364,1.1211 0.0547,1.5586 0.0182,0.4375 0.0364,0.72005 0.0547,0.84765 l -4.64844,0 c -0.0183,-0.0911 -0.0365,-0.33723 -0.0547,-0.73828 -0.0182,-0.40104 -0.0456,-0.85677 -0.082,-1.36718 -0.0182,-0.52865 -0.0365,-1.05729 -0.0547,-1.58594 -0.0183,-0.54687 -0.0274,-1.0026 -0.0273,-1.36719 l -0.082,0 c -0.47398,0.85678 -0.99351,1.63152 -1.55859,2.32422 -0.56513,0.69271 -1.22138,1.28516 -1.96875,1.77734 -0.74742,0.47396 -1.60419,0.83855 -2.57032,1.09375 -0.96616,0.27344 -2.08725,0.41016 -3.36328,0.41016 -1.64063,0 -3.05339,-0.20052 -4.23828,-0.60156 -1.1849,-0.40104 -2.16016,-1.02083 -2.92578,-1.85938 -0.76563,-0.83854 -1.33073,-1.91406 -1.69531,-3.22656 -0.34636,-1.31249 -0.51954,-2.88931 -0.51953,-4.73047 l 0,-19.71484 4.94922,0" />
        <path
           id="path3715"
           d="m 645.87415,134.9557 c -3e-5,1.38543 -0.27347,2.62501 -0.82032,3.71875 -0.52867,1.07553 -1.30341,1.98699 -2.32422,2.73438 -1.02085,0.72917 -2.27866,1.29427 -3.77343,1.69531 -1.47658,0.38281 -3.17189,0.57422 -5.08594,0.57422 -1.71355,0 -3.26303,-0.13672 -4.64844,-0.41016 -1.36719,-0.2552 -2.57032,-0.67447 -3.60937,-1.25781 -1.03907,-0.58333 -1.91407,-1.34895 -2.625,-2.29687 -0.69271,-0.96615 -1.20313,-2.14193 -1.53125,-3.52735 l 4.34765,-0.84765 c 0.41927,1.58594 1.28515,2.75261 2.59766,3.5 1.31249,0.72917 3.1354,1.09375 5.46875,1.09375 1.05728,0 2.02342,-0.0729 2.89844,-0.21875 0.89321,-0.14583 1.65883,-0.39193 2.29687,-0.73829 0.638,-0.36457 1.13019,-0.83853 1.47656,-1.42187 0.36457,-0.60156 0.54686,-1.33984 0.54688,-2.21484 -2e-5,-0.89322 -0.20966,-1.62239 -0.62891,-2.1875 -0.41929,-0.58333 -1.00262,-1.0664 -1.75,-1.44922 -0.74741,-0.3828 -1.65887,-0.71093 -2.73437,-0.98438 -1.05731,-0.29165 -2.22397,-0.61066 -3.5,-0.95703 -1.18491,-0.30988 -2.36069,-0.65623 -3.52735,-1.03906 -1.16667,-0.3828 -2.22396,-0.8841 -3.17187,-1.50391 -0.92969,-0.638 -1.6862,-1.42186 -2.26953,-2.35156 -0.58334,-0.92967 -0.875,-2.09633 -0.875,-3.5 0,-2.69789 0.95703,-4.74867 2.87109,-6.15234 1.93229,-1.42185 4.73957,-2.13279 8.42188,-2.13282 3.263,3e-5 5.85154,0.57425 7.76562,1.72266 1.93227,1.14846 3.15362,2.98961 3.66406,5.52344 l -4.42968,0.54687 c -0.16409,-0.7656 -0.46487,-1.40362 -0.90235,-1.91406 -0.43752,-0.52862 -0.96616,-0.94789 -1.58593,-1.25781 -0.61981,-0.3281 -1.32164,-0.55597 -2.10547,-0.6836 -0.76564,-0.1458 -1.56773,-0.21872 -2.40625,-0.21875 -2.22397,3e-5 -3.8646,0.33727 -4.92188,1.01172 -1.0573,0.67451 -1.58594,1.69534 -1.58594,3.0625 0,0.80211 0.1914,1.46747 0.57422,1.9961 0.40104,0.51043 0.94791,0.94793 1.64063,1.3125 0.71093,0.34637 1.55858,0.65626 2.54297,0.92968 0.98436,0.25523 2.06899,0.52867 3.2539,0.82032 0.78384,0.20053 1.58592,0.41928 2.40625,0.65625 0.8203,0.21876 1.61326,0.4922 2.37891,0.82031 0.78383,0.30991 1.513,0.68361 2.1875,1.12109 0.69268,0.41929 1.29425,0.9297 1.80469,1.53125 0.51039,0.60158 0.91143,1.3034 1.20312,2.10547 0.30987,0.80209 0.46482,1.73178 0.46485,2.78906" />
        <path
           id="path3717"
           d="m 659.2179,143.67836 c -2.97137,0 -5.20444,-0.78385 -6.69922,-2.35156 -1.4948,-1.56771 -2.24219,-3.71875 -2.24219,-6.45313 0,-1.95051 0.36458,-3.54556 1.09375,-4.78515 0.74739,-1.2578 1.71354,-2.24218 2.89844,-2.95313 1.20311,-0.71092 2.5703,-1.20311 4.10156,-1.47656 1.53124,-0.27342 3.08983,-0.42837 4.67578,-0.46485 l 6.64453,-0.10937 0,-1.61328 c -2e-5,-1.22133 -0.12762,-2.2604 -0.38281,-3.11719 -0.25523,-0.85675 -0.64716,-1.54945 -1.17578,-2.07812 -0.52867,-0.52862 -1.19403,-0.91144 -1.9961,-1.14844 -0.78387,-0.25518 -1.71355,-0.38279 -2.78906,-0.38281 -0.94793,2e-5 -1.8047,0.0729 -2.57031,0.21875 -0.76564,0.12763 -1.431,0.37372 -1.99609,0.73828 -0.56512,0.34638 -1.02085,0.82945 -1.36719,1.44922 -0.34637,0.60158 -0.57423,1.36721 -0.6836,2.29687 l -5.14062,-0.46484 c 0.18229,-1.16665 0.52864,-2.23305 1.03906,-3.19922 0.51041,-0.98435 1.23046,-1.83201 2.16016,-2.54297 0.94791,-0.71091 2.12369,-1.25778 3.52734,-1.64063 1.42186,-0.40101 3.1354,-0.60153 5.14063,-0.60156 3.71873,3e-5 6.5169,0.8568 8.39453,2.57031 1.87758,1.69534 2.81638,4.15628 2.8164,7.38282 l 0,12.74218 c -2e-5,1.45834 0.19138,2.56121 0.57422,3.3086 0.38279,0.72917 1.11195,1.09375 2.1875,1.09375 0.27341,0 0.54685,-0.0182 0.82032,-0.0547 0.2734,-0.0365 0.53773,-0.082 0.79296,-0.13672 l 0,3.0625 c -0.61982,0.14584 -1.23961,0.25521 -1.85937,0.32813 -0.60159,0.0729 -1.24873,0.10937 -1.94141,0.10937 -0.92971,0 -1.73179,-0.11849 -2.40625,-0.35547 -0.65627,-0.2552 -1.19403,-0.6289 -1.61328,-1.12109 -0.41929,-0.51041 -0.7383,-1.13021 -0.95703,-1.85938 -0.21877,-0.74739 -0.35549,-1.61327 -0.41016,-2.59765 l -0.16406,0 c -0.52867,0.94792 -1.112,1.80469 -1.75,2.57031 -0.61981,0.76563 -1.34898,1.42188 -2.1875,1.96875 -0.83856,0.52865 -1.79559,0.9388 -2.87109,1.23047 -1.05731,0.29167 -2.27866,0.4375 -3.66406,0.4375 m 1.12109,-3.69141 c 1.56769,1e-5 2.93488,-0.28254 4.10156,-0.84765 1.18488,-0.58333 2.16014,-1.32161 2.92578,-2.21485 0.78384,-0.89322 1.36717,-1.86848 1.75,-2.92578 0.38279,-1.05728 0.5742,-2.069 0.57422,-3.03515 l 0,-2.4336 -5.38672,0.10938 c -1.20314,0.0182 -2.35157,0.10939 -3.44531,0.27343 -1.07553,0.14585 -2.02345,0.44663 -2.84375,0.90235 -0.82032,0.45574 -1.47657,1.09376 -1.96875,1.91406 -0.47397,0.82032 -0.71094,1.89584 -0.71094,3.22656 0,1.60418 0.42838,2.84376 1.28516,3.71875 0.87499,0.87501 2.11457,1.31251 3.71875,1.3125" />
      </g>
      <g
         id="text3608"
         style="font-size:56px;font-style:normal;font-variant:normal;font-weight:normal;font-stretch:normal;text-indent:0;text-align:center;text-decoration:none;line-height:100%;letter-spacing:normal;word-spacing:normal;text-transform:none;direction:ltr;block-progression:tb;writing-mode:lr-tb;text-anchor:middle;color:#000000;fill:#000000;fill-opacity:1;fill-rule:nonzero;stroke:none;marker:none;visibility:visible;display:inline;overflow:visible;enable-background:accumulate;font-family:Liberation Sans;-inkscape-font-specification:Liberation Sans">
        <path
           id="path3720"
           style="marker:none"
           d="m 275.85983,627.36713 c 0,1.69532 0.11848,3.25391 0.35547,4.67578 0.2552,1.42188 0.67447,2.65235 1.25781,3.6914 0.58333,1.02084 1.34895,1.81381 2.29688,2.37891 0.96613,0.56511 2.15103,0.84766 3.55469,0.84766 1.74998,0 3.20831,-0.47396 4.375,-1.42188 1.18487,-0.94791 1.91404,-2.40624 2.1875,-4.375 l 4.97656,0.32813 c -0.16409,1.22136 -0.51956,2.39714 -1.06641,3.52734 -0.5469,1.13021 -1.29429,2.1237 -2.24218,2.98047 -0.92971,0.85677 -2.06904,1.54948 -3.41797,2.07812 -1.34898,0.51042 -2.90757,0.76563 -4.67578,0.76563 -2.31512,0 -4.28387,-0.39193 -5.90625,-1.17578 -1.62241,-0.78386 -2.94402,-1.85937 -3.96485,-3.22656 -1.00261,-1.38542 -1.73177,-3.00781 -2.1875,-4.86719 -0.45573,-1.8776 -0.68359,-3.91015 -0.68359,-6.09766 0,-1.98696 0.16406,-3.73696 0.49219,-5.25 0.32812,-1.53123 0.78385,-2.86195 1.36718,-3.99219 0.60156,-1.14841 1.30338,-2.10544 2.10547,-2.87109 0.80208,-0.78383 1.66796,-1.40362 2.59766,-1.85937 0.9479,-0.47393 1.94139,-0.81117 2.98047,-1.01172 1.03905,-0.21872 2.08722,-0.3281 3.14453,-0.32813 1.65884,3e-5 3.1354,0.2279 4.42969,0.6836 1.29425,0.45575 2.40622,1.08466 3.33593,1.88671 0.9479,0.78388 1.71352,1.71357 2.29688,2.78907 0.58331,1.07554 0.99346,2.23309 1.23047,3.47265 l -5.0586,0.38282 c -0.25523,-1.64061 -0.90236,-2.94399 -1.9414,-3.91016 -1.03908,-0.96612 -2.51565,-1.44919 -4.42969,-1.44922 -1.40366,3e-5 -2.57944,0.23701 -3.52734,0.71094 -0.9297,0.45575 -1.68621,1.15757 -2.26954,2.10547 -0.58334,0.92971 -1.00261,2.10549 -1.25781,3.52734 -0.23699,1.42189 -0.35547,3.08986 -0.35547,5.00391" />
        <path
           id="path3722"
           style="marker:none"
           d="m 307.66061,642.84369 c -2.97136,0 -5.20443,-0.78385 -6.69921,-2.35156 -1.4948,-1.56771 -2.24219,-3.71875 -2.24219,-6.45313 0,-1.95051 0.36458,-3.54556 1.09375,-4.78515 0.74739,-1.2578 1.71353,-2.24218 2.89844,-2.95313 1.20311,-0.71092 2.5703,-1.20311 4.10156,-1.47656 1.53124,-0.27342 3.08983,-0.42837 4.67578,-0.46485 l 6.64453,-0.10937 0,-1.61328 c -2e-5,-1.22134 -0.12763,-2.2604 -0.38281,-3.11719 -0.25523,-0.85675 -0.64716,-1.54945 -1.17578,-2.07812 -0.52867,-0.52863 -1.19403,-0.91144 -1.9961,-1.14844 -0.78387,-0.25518 -1.71356,-0.38279 -2.78906,-0.38281 -0.94793,2e-5 -1.8047,0.0729 -2.57031,0.21875 -0.76564,0.12763 -1.431,0.37372 -1.9961,0.73828 -0.56511,0.34638 -1.02084,0.82945 -1.36718,1.44922 -0.34637,0.60158 -0.57423,1.36721 -0.6836,2.29687 l -5.14062,-0.46484 c 0.18229,-1.16665 0.52864,-2.23305 1.03906,-3.19922 0.51041,-0.98435 1.23046,-1.83201 2.16016,-2.54297 0.94791,-0.71091 2.12369,-1.25778 3.52734,-1.64063 1.42186,-0.40101 3.1354,-0.60153 5.14063,-0.60156 3.71873,3e-5 6.5169,0.8568 8.39453,2.57031 1.87757,1.69534 2.81638,4.15628 2.8164,7.38282 l 0,12.74218 c -2e-5,1.45834 0.19138,2.56121 0.57422,3.3086 0.38279,0.72917 1.11195,1.09375 2.1875,1.09375 0.27341,0 0.54685,-0.0182 0.82031,-0.0547 0.27341,-0.0364 0.53773,-0.082 0.79297,-0.13672 l 0,3.0625 c -0.61982,0.14583 -1.23961,0.25521 -1.85937,0.32813 -0.60159,0.0729 -1.24873,0.10937 -1.94141,0.10937 -0.92971,0 -1.73179,-0.11849 -2.40625,-0.35547 -0.65627,-0.25521 -1.19403,-0.6289 -1.61328,-1.12109 -0.41929,-0.51042 -0.7383,-1.13021 -0.95703,-1.85938 -0.21877,-0.74739 -0.35549,-1.61327 -0.41016,-2.59765 l -0.16406,0 c -0.52867,0.94792 -1.112,1.80469 -1.75,2.57031 -0.61981,0.76563 -1.34898,1.42188 -2.1875,1.96875 -0.83856,0.52865 -1.79559,0.9388 -2.87109,1.23047 -1.05731,0.29167 -2.27866,0.4375 -3.66407,0.4375 m 1.1211,-3.69141 c 1.56769,10e-6 2.93488,-0.28255 4.10156,-0.84765 1.18488,-0.58333 2.16014,-1.32161 2.92578,-2.21485 0.78384,-0.89322 1.36717,-1.86848 1.75,-2.92578 0.38279,-1.05728 0.5742,-2.069 0.57422,-3.03515 l 0,-2.4336 -5.38672,0.10938 c -1.20314,0.0182 -2.35158,0.10939 -3.44531,0.27343 -1.07553,0.14585 -2.02345,0.44663 -2.84375,0.90235 -0.82032,0.45574 -1.47657,1.09376 -1.96875,1.91406 -0.47397,0.82032 -0.71095,1.89584 -0.71094,3.22656 -1e-5,1.60418 0.42838,2.84376 1.28516,3.71875 0.87499,0.87501 2.11457,1.31251 3.71875,1.3125" />
        <path
           id="path3724"
           style="marker:none"
           d="m 342.66061,642.07806 c -0.74741,0.20052 -1.51303,0.35547 -2.29687,0.46485 -0.76564,0.1276 -1.65887,0.1914 -2.67969,0.1914 -3.9375,0 -5.90625,-2.23307 -5.90625,-6.69921 l 0,-19.74219 -3.41797,0 0,-3.58203 3.60938,0 1.44922,-6.61719 3.28125,0 0,6.61719 5.46875,0 0,3.58203 -5.46875,0 0,18.67578 c -10e-6,1.42188 0.22785,2.42448 0.68359,3.00781 0.47395,0.56511 1.28515,0.84766 2.43359,0.84766 0.47395,0 0.92968,-0.0365 1.36719,-0.10938 0.45572,-0.0729 0.9479,-0.16406 1.47656,-0.27343 l 0,3.63671" />
        <path
           id="path3726"
           style="marker:none"
           d="m 350.5903,628.54291 c -1e-5,1.54949 0.15494,2.98048 0.46485,4.29297 0.32811,1.29428 0.8203,2.41537 1.47656,3.36328 0.67447,0.92969 1.53124,1.65886 2.57031,2.1875 1.03905,0.51042 2.28775,0.76563 3.74609,0.76562 2.1328,10e-6 3.83722,-0.42838 5.11329,-1.28515 1.29424,-0.85677 2.16924,-1.9414 2.625,-3.25391 l 4.32031,1.23047 c -0.30993,0.82032 -0.74743,1.64974 -1.3125,2.48828 -0.5469,0.82032 -1.28518,1.56771 -2.21485,2.24219 -0.92971,0.65625 -2.09637,1.20312 -3.5,1.64062 -1.38543,0.41927 -3.06251,0.62891 -5.03125,0.62891 -4.37501,0 -7.71094,-1.30339 -10.00781,-3.91016 -2.27865,-2.60676 -3.41797,-6.48046 -3.41797,-11.62109 0,-2.77082 0.34635,-5.11326 1.03907,-7.02734 0.6927,-1.93227 1.64062,-3.49998 2.84375,-4.70313 1.20311,-1.2031 2.60676,-2.06898 4.21093,-2.59766 1.60416,-0.54684 3.3177,-0.82028 5.14063,-0.82031 2.47915,3e-5 4.54815,0.40107 6.20703,1.20313 1.67706,0.80211 3.0169,1.91409 4.01953,3.33593 1.02081,1.40367 1.74086,3.06253 2.16016,4.97657 0.43747,1.91408 0.65622,3.98309 0.65625,6.20703 l 0,0.65625 -21.10938,0 m 16.02344,-3.77344 c -0.27346,-3.11717 -1.06643,-5.3867 -2.37891,-6.80859 -1.31252,-1.44008 -3.19923,-2.16013 -5.66015,-2.16016 -0.82033,3e-5 -1.68622,0.13675 -2.59766,0.41016 -0.89324,0.25523 -1.72267,0.72007 -2.48828,1.39453 -0.76564,0.6745 -1.41277,1.59507 -1.94141,2.76172 -0.52865,1.14845 -0.82943,2.6159 -0.90234,4.40234 l 15.96875,0" />
        <path
           id="path3728"
           style="marker:none"
           d="m 389.36374,642.07806 c -0.74741,0.20052 -1.51304,0.35547 -2.29688,0.46485 -0.76563,0.1276 -1.65886,0.1914 -2.67968,0.1914 -3.93751,0 -5.90626,-2.23307 -5.90625,-6.69921 l 0,-19.74219 -3.41797,0 0,-3.58203 3.60937,0 1.44922,-6.61719 3.28125,0 0,6.61719 5.46875,0 0,3.58203 -5.46875,0 0,18.67578 c -1e-5,1.42188 0.22786,2.42448 0.6836,3.00781 0.47394,0.56511 1.28514,0.84766 2.43359,0.84766 0.47394,0 0.92967,-0.0365 1.36719,-0.10938 0.45571,-0.0729 0.9479,-0.16406 1.47656,-0.27343 l 0,3.63671" />
        <path
           id="path3730"
           style="marker:none"
           d="m 418.53952,627.4765 c -3e-5,5.17709 -1.13935,9.03256 -3.41797,11.56641 -2.27867,2.53385 -5.58726,3.80078 -9.92578,3.80078 -2.05991,0 -3.90105,-0.3099 -5.52344,-0.92969 -1.6224,-0.61979 -2.9987,-1.5677 -4.1289,-2.84375 -1.11199,-1.27604 -1.96876,-2.87109 -2.57032,-4.78515 -0.58333,-1.93229 -0.875,-4.20182 -0.875,-6.8086 0,-10.20831 4.42057,-15.31247 13.26172,-15.3125 2.29686,3e-5 4.27472,0.31904 5.9336,0.95703 1.67706,0.63805 3.04424,1.59508 4.10156,2.8711 1.07549,1.27606 1.86846,2.87111 2.37891,4.78515 0.51038,1.91408 0.76559,4.14716 0.76562,6.69922 m -5.16797,0 c -2e-5,-2.29686 -0.18231,-4.19269 -0.54687,-5.6875 -0.34638,-1.49477 -0.86591,-2.68878 -1.5586,-3.58203 -0.6745,-0.8932 -1.50392,-1.513 -2.48828,-1.85937 -0.98439,-0.36456 -2.09637,-0.54685 -3.33594,-0.54688 -1.25782,3e-5 -2.39714,0.19143 -3.41796,0.57422 -1.00262,0.36461 -1.85939,1.00263 -2.57032,1.91406 -0.71094,0.89325 -1.25782,2.08726 -1.64062,3.58203 -0.36459,1.49481 -0.54688,3.3633 -0.54688,5.60547 0,2.29689 0.20052,4.20183 0.60157,5.71485 0.40103,1.49479 0.9479,2.6888 1.64062,3.58203 0.71093,0.89323 1.54035,1.52214 2.48828,1.88672 0.96613,0.36458 2.01431,0.54687 3.14453,0.54687 1.2578,0 2.39712,-0.17317 3.41797,-0.51953 1.02082,-0.36458 1.8867,-0.99349 2.59766,-1.88672 0.71091,-0.89322 1.25779,-2.09635 1.64062,-3.60937 0.38279,-1.51302 0.5742,-3.41796 0.57422,-5.71485" />
      </g>
      <g
         id="text3646"
         style="font-size:56px;font-style:normal;font-variant:normal;font-weight:normal;font-stretch:normal;text-indent:0;text-align:center;text-decoration:none;line-height:100%;letter-spacing:normal;word-spacing:normal;text-transform:none;direction:ltr;block-progression:tb;writing-mode:lr-tb;text-anchor:middle;color:#000000;fill:#000000;fill-opacity:1;fill-rule:nonzero;stroke:none;marker:none;visibility:visible;display:inline;overflow:visible;enable-background:accumulate;font-family:Liberation Sans;-inkscape-font-specification:Liberation Sans">
        <path
           id="path3733"
           style="marker:none"
           d="m 61.863754,269.6506 c -7e-6,1.69533 0.118482,3.25392 0.355469,4.67579 0.2552,1.42188 0.674471,2.65235 1.257813,3.6914 0.583323,1.02084 1.348947,1.81381 2.296875,2.37891 0.966133,0.56511 2.151028,0.84766 3.554687,0.84765 1.749983,10e-6 3.208315,-0.47395 4.375,-1.42187 1.184875,-0.94791 1.914041,-2.40624 2.1875,-4.375 l 4.976563,0.32812 c -0.164089,1.22137 -0.519558,2.39715 -1.066407,3.52735 -0.5469,1.13021 -1.294295,2.1237 -2.242187,2.98047 -0.92971,0.85677 -2.069032,1.54948 -3.417969,2.07812 -1.348977,0.51042 -2.907569,0.76563 -4.675781,0.76563 -2.315117,0 -4.283865,-0.39193 -5.90625,-1.17578 -1.622404,-0.78386 -2.944017,-1.85938 -3.964844,-3.22657 -1.002608,-1.38541 -1.731774,-3.0078 -2.1875,-4.86718 -0.455732,-1.8776 -0.683596,-3.91015 -0.683594,-6.09766 -2e-6,-1.98696 0.16406,-3.73696 0.492188,-5.25 0.328122,-1.53123 0.78385,-2.86196 1.367187,-3.99219 0.601558,-1.14841 1.30338,-2.10544 2.105469,-2.87109 0.802076,-0.78383 1.667961,-1.40362 2.597656,-1.85938 0.947907,-0.47393 1.941396,-0.81117 2.980469,-1.01172 1.03905,-0.21872 2.087226,-0.32809 3.144531,-0.32812 1.658838,3e-5 3.135399,0.22789 4.429688,0.68359 1.29425,0.45576 2.406228,1.08467 3.335937,1.88672 0.947893,0.78388 1.713517,1.71357 2.296875,2.78906 0.583308,1.07555 0.993464,2.2331 1.230469,3.47266 l -5.058594,0.38281 c -0.255229,-1.6406 -0.902364,-2.94398 -1.941406,-3.91015 -1.039081,-0.96612 -2.515642,-1.4492 -4.429687,-1.44922 -1.40366,2e-5 -2.57944,0.237 -3.527344,0.71094 -0.929698,0.45575 -1.686208,1.15757 -2.269531,2.10546 -0.583342,0.92971 -1.002613,2.10549 -1.257813,3.52735 -0.236987,1.42189 -0.355476,3.08986 -0.355469,5.0039" />
        <path
           id="path3735"
           style="marker:none"
           d="m 64.078598,341.12717 c -2.971362,0 -5.204433,-0.78386 -6.699219,-2.35157 -1.494795,-1.5677 -2.24219,-3.71874 -2.242187,-6.45312 -3e-6,-1.95051 0.36458,-3.54556 1.09375,-4.78516 0.747391,-1.2578 1.713536,-2.24217 2.898437,-2.95312 1.203118,-0.71092 2.570304,-1.20311 4.101563,-1.47656 1.531238,-0.27342 3.08983,-0.42837 4.675781,-0.46485 l 6.644531,-0.10937 0,-1.61328 c -2.2e-5,-1.22134 -0.127626,-2.2604 -0.382812,-3.11719 -0.25523,-0.85675 -0.647156,-1.54946 -1.175781,-2.07813 -0.528666,-0.52862 -1.19403,-0.91143 -1.996094,-1.14843 -0.783872,-0.25519 -1.713558,-0.38279 -2.789063,-0.38282 -0.947931,3e-5 -1.804701,0.0729 -2.570312,0.21875 -0.765637,0.12763 -1.431001,0.37373 -1.996094,0.73828 -0.565114,0.34638 -1.020843,0.82946 -1.367187,1.44922 -0.346364,0.60159 -0.574228,1.36721 -0.683594,2.29688 l -5.140625,-0.46485 c 0.182288,-1.16664 0.528641,-2.23304 1.039062,-3.19921 0.510412,-0.98435 1.230463,-1.83201 2.160157,-2.54297 0.947908,-0.71091 2.123688,-1.25779 3.527343,-1.64063 1.421863,-0.40101 3.135403,-0.60153 5.140625,-0.60156 3.718731,3e-5 6.516905,0.8568 8.394532,2.57031 1.877578,1.69534 2.816379,4.15628 2.816406,7.38281 l 0,12.74219 c -2.7e-5,1.45834 0.191379,2.5612 0.574219,3.3086 0.382784,0.72917 1.11195,1.09375 2.1875,1.09375 0.273407,0 0.546844,-0.0182 0.820312,-0.0547 0.273407,-0.0365 0.53773,-0.082 0.792969,-0.13672 l 0,3.0625 c -0.619822,0.14583 -1.239613,0.25521 -1.859375,0.32812 -0.601591,0.0729 -1.248726,0.10938 -1.941406,0.10938 -0.929714,0 -1.731797,-0.11849 -2.40625,-0.35547 -0.656275,-0.25521 -1.194035,-0.62891 -1.613282,-1.12109 -0.419293,-0.51042 -0.738304,-1.13021 -0.957031,-1.85938 -0.218772,-0.74739 -0.355491,-1.61327 -0.410156,-2.59765 l -0.164063,0 c -0.528667,0.94792 -1.112,1.80469 -1.75,2.57031 -0.619811,0.76563 -1.348977,1.42187 -2.1875,1.96875 -0.838558,0.52864 -1.795589,0.9388 -2.871093,1.23047 -1.057306,0.29166 -2.278659,0.4375 -3.664063,0.4375 m 1.121094,-3.69141 c 1.567694,0 2.93488,-0.28255 4.101562,-0.84766 1.184878,-0.58332 2.160138,-1.32161 2.925782,-2.21484 0.783833,-0.89322 1.367166,-1.86848 1.75,-2.92578 0.38279,-1.05728 0.574196,-2.069 0.574218,-3.03516 l 0,-2.43359 -5.386718,0.10937 c -1.203141,0.0183 -2.351577,0.10939 -3.445313,0.27344 -1.075533,0.14585 -2.023448,0.44663 -2.84375,0.90235 -0.820322,0.45574 -1.476571,1.09376 -1.96875,1.91406 -0.473966,0.82032 -0.710945,1.89584 -0.710937,3.22656 -8e-6,1.60417 0.428377,2.84376 1.285156,3.71875 0.87499,0.875 2.114572,1.3125 3.71875,1.3125" />
        <path
           id="path3737"
           style="marker:none"
           d="m 75.727036,396.36154 c -0.747411,0.20052 -1.513035,0.35547 -2.296875,0.46485 -0.765638,0.1276 -1.658866,0.1914 -2.679688,0.1914 -3.937506,0 -5.906254,-2.23307 -5.90625,-6.69922 l 0,-19.74218 -3.417969,0 0,-3.58204 3.609375,0 1.449219,-6.61718 3.28125,0 0,6.61718 5.46875,0 0,3.58204 -5.46875,0 0,18.67578 c -9e-6,1.42188 0.227855,2.42448 0.683594,3.00781 0.473948,0.56511 1.285145,0.84766 2.433594,0.84766 0.473945,0 0.929674,-0.0365 1.367187,-0.10938 0.455715,-0.0729 0.947902,-0.16406 1.476563,-0.27344 l 0,3.63672" />
        <path
           id="path3739"
           style="marker:none"
           d="m 60.305161,438.82639 c -8e-6,1.54949 0.15494,2.98048 0.464843,4.29296 0.328117,1.29428 0.820304,2.41538 1.476563,3.36329 0.674469,0.92969 1.531239,1.65885 2.570312,2.1875 1.03905,0.51042 2.287746,0.76562 3.746094,0.76562 2.132795,0 3.83722,-0.42838 5.113281,-1.28516 1.294249,-0.85676 2.169248,-1.9414 2.625,-3.2539 l 4.320313,1.23047 c -0.309924,0.82031 -0.747423,1.64974 -1.3125,2.48828 -0.546901,0.82031 -1.285182,1.56771 -2.214844,2.24219 -0.929711,0.65625 -2.096376,1.20312 -3.5,1.64062 -1.385436,0.41927 -3.062518,0.62891 -5.03125,0.62891 -4.375011,0 -7.710946,-1.30339 -10.007812,-3.91016 -2.27865,-2.60676 -3.417972,-6.48046 -3.417969,-11.62109 -3e-6,-2.77082 0.346351,-5.11326 1.039062,-7.02735 0.692704,-1.93226 1.64062,-3.49997 2.84375,-4.70312 1.203118,-1.2031 2.606762,-2.06898 4.210938,-2.59766 1.604154,-0.54684 3.317694,-0.82028 5.140625,-0.82031 2.479148,3e-5 4.548157,0.40107 6.207031,1.20312 1.67706,0.80212 3.016902,1.91409 4.019531,3.33594 1.020807,1.40367 1.740858,3.06252 2.160157,4.97656 0.437471,1.91409 0.656221,3.98309 0.65625,6.20704 l 0,0.65625 -21.109375,0 m 16.023437,-3.77344 c -0.273461,-3.11717 -1.066429,-5.3867 -2.378906,-6.8086 -1.31252,-1.44007 -3.199237,-2.16013 -5.660156,-2.16015 -0.820328,2e-5 -1.686212,0.13674 -2.597657,0.41015 -0.893241,0.25524 -1.722667,0.72008 -2.488281,1.39454 -0.765635,0.6745 -1.412769,1.59507 -1.941406,2.76171 -0.528654,1.14846 -0.829435,2.61591 -0.902344,4.40235 l 15.96875,0" />
        <path
           id="path3741"
           style="marker:none"
           d="m 75.727036,508.36154 c -0.747411,0.20052 -1.513035,0.35547 -2.296875,0.46485 -0.765638,0.1276 -1.658866,0.1914 -2.679688,0.1914 -3.937506,0 -5.906254,-2.23307 -5.90625,-6.69922 l 0,-19.74218 -3.417969,0 0,-3.58204 3.609375,0 1.449219,-6.61718 3.28125,0 0,6.61718 5.46875,0 0,3.58204 -5.46875,0 0,18.67578 c -9e-6,1.42188 0.227855,2.42448 0.683594,3.00781 0.473948,0.56511 1.285145,0.84766 2.433594,0.84766 0.473945,0 0.929674,-0.0365 1.367187,-0.10938 0.455715,-0.0729 0.947902,-0.16406 1.476563,-0.27344 l 0,3.63672" />
        <path
           id="path3743"
           style="marker:none"
           d="m 81.551254,549.75998 c -2.9e-5,5.17709 -1.13935,9.03256 -3.417968,11.56641 -2.278669,2.53385 -5.58726,3.80078 -9.925782,3.80078 -2.059909,0 -3.901053,-0.3099 -5.523437,-0.92969 -1.622404,-0.61979 -2.998705,-1.56771 -4.128906,-2.84375 -1.111984,-1.27604 -1.968754,-2.87109 -2.570313,-4.78516 -0.583336,-1.93228 -0.875002,-4.20181 -0.875,-6.80859 -2e-6,-10.20831 4.420566,-15.31247 13.261719,-15.3125 2.296857,3e-5 4.274719,0.31904 5.933594,0.95703 1.67706,0.63805 3.044246,1.59508 4.101562,2.87109 1.075494,1.27607 1.868462,2.87112 2.378906,4.78516 0.510388,1.91408 0.765596,4.14715 0.765625,6.69922 m -5.167968,0 c -2.4e-5,-2.29686 -0.182316,-4.19269 -0.546875,-5.6875 -0.346377,-1.49477 -0.865908,-2.68878 -1.558594,-3.58203 -0.6745,-0.89321 -1.503926,-1.513 -2.488281,-1.85938 -0.984394,-0.36455 -2.096372,-0.54685 -3.335938,-0.54687 -1.257827,2e-5 -2.397149,0.19143 -3.417969,0.57422 -1.002615,0.36461 -1.859385,1.00263 -2.570312,1.91406 -0.710947,0.89325 -1.257821,2.08726 -1.640625,3.58203 -0.364591,1.49481 -0.546883,3.3633 -0.546875,5.60547 -8e-6,2.29689 0.200513,4.20183 0.601562,5.71484 0.401033,1.4948 0.947908,2.68881 1.640625,3.58203 0.710927,0.89324 1.540354,1.52214 2.488282,1.88672 0.966132,0.36459 2.014308,0.54688 3.144531,0.54688 1.257796,0 2.397117,-0.17318 3.417969,-0.51953 1.020813,-0.36458 1.886698,-0.99349 2.597656,-1.88672 0.710915,-0.89322 1.25779,-2.09635 1.640625,-3.60938 0.382789,-1.51301 0.574195,-3.41795 0.574219,-5.71484" />
      </g>
      <path
         id="path3669"
         d="m 98.880998,508.51671 c 44.973322,0 81.431412,36.45808 81.431412,81.43141"
         style="color:#000000;fill:none;stroke:#000000;stroke-width:4;marker:none;visibility:visible;display:inline;overflow:visible;enable-background:accumulate" />
      <g
         id="text3671"
         style="font-size:32px;font-style:normal;font-variant:normal;font-weight:normal;font-stretch:normal;text-align:center;line-height:100%;writing-mode:lr-tb;text-anchor:middle;fill:#000000;fill-opacity:1;stroke:none;font-family:Liberation Mono;-inkscape-font-specification:Liberation Mono" />
      <g
         id="text3675"
         style="font-size:48px;font-style:normal;font-variant:normal;font-weight:normal;font-stretch:normal;text-align:center;line-height:100%;writing-mode:lr-tb;text-anchor:middle;fill:#000000;fill-opacity:1;stroke:none;font-family:Liberation Sans;-inkscape-font-specification:Liberation Sans">
        <path
           id="path3748"
           d="m 185.24536,505.8783 c -2e-5,2.93751 -0.28127,5.51563 -0.84375,7.73437 -0.5469,2.20313 -1.33596,4.03907 -2.36719,5.50781 -1.03127,1.46876 -2.28908,2.57032 -3.77343,3.30469 -1.46877,0.73438 -3.12502,1.10156 -4.96875,1.10156 -1.26564,0 -2.40626,-0.13281 -3.42188,-0.39843 -1.01563,-0.25 -1.92188,-0.64844 -2.71875,-1.19532 -0.79688,-0.54687 -1.47657,-1.25781 -2.03906,-2.13281 -0.5625,-0.87499 -1.01563,-1.92968 -1.35938,-3.16406 l 4.03125,-0.63281 c 0.4375,1.42188 1.11718,2.46875 2.03907,3.14062 0.93749,0.65625 2.11717,0.98438 3.53906,0.98438 1.14061,0 2.17967,-0.26563 3.11719,-0.79688 0.9531,-0.54687 1.75779,-1.35937 2.41406,-2.4375 0.67186,-1.07812 1.19529,-2.42968 1.57031,-4.05469 0.37498,-1.62498 0.57811,-3.53123 0.60938,-5.71875 -0.32815,0.73439 -0.78127,1.39064 -1.35938,1.96875 -0.56252,0.57814 -1.21095,1.07033 -1.94531,1.47657 -0.71877,0.39063 -1.50002,0.69532 -2.34375,0.91406 -0.84376,0.20313 -1.69533,0.3047 -2.55469,0.30469 -1.50001,10e-6 -2.85938,-0.26562 -4.07812,-0.79688 -1.20314,-0.54686 -2.22657,-1.30467 -3.07032,-2.27344 -0.84375,-0.96873 -1.5,-2.13279 -1.96875,-3.49218 -0.45312,-1.37498 -0.67969,-2.89842 -0.67968,-4.57032 -1e-5,-1.7031 0.24218,-3.24216 0.72656,-4.61718 0.5,-1.37498 1.21874,-2.53904 2.15625,-3.49219 0.93749,-0.96872 2.08593,-1.71091 3.44531,-2.22656 1.37499,-0.5156 2.92968,-0.77341 4.66406,-0.77344 3.67186,3e-5 6.45311,1.35941 8.34375,4.07812 1.89061,2.71878 2.83592,6.80471 2.83594,12.25782 m -4.59375,-4.07813 c -2e-5,-1.21873 -0.14846,-2.36716 -0.44531,-3.44531 -0.28127,-1.0781 -0.71096,-2.0156 -1.28906,-2.8125 -0.56252,-0.79685 -1.26565,-1.42185 -2.10938,-1.875 -0.82814,-0.46872 -1.78908,-0.7031 -2.88281,-0.70313 -1.01564,3e-5 -1.9297,0.17972 -2.74219,0.53907 -0.81251,0.3594 -1.50001,0.87502 -2.0625,1.54687 -0.56251,0.65628 -1.00001,1.46096 -1.3125,2.41406 -0.29688,0.95315 -0.44532,2.01565 -0.44531,3.1875 -1e-5,1.1094 0.1328,2.14065 0.39844,3.09375 0.28124,0.95315 0.6953,1.78127 1.24218,2.48438 0.54687,0.68751 1.22656,1.23439 2.03907,1.64062 0.81249,0.39064 1.7578,0.58596 2.83593,0.58594 0.78124,2e-5 1.5703,-0.1328 2.36719,-0.39844 0.81249,-0.26561 1.53905,-0.67186 2.17969,-1.21875 0.65623,-0.54685 1.18748,-1.23435 1.59375,-2.0625 0.42185,-0.84373 0.63279,-1.83591 0.63281,-2.97656" />
        <path
           id="path3750"
           d="m 212.36255,506.53455 c -3e-5,3.17188 -0.30471,5.84376 -0.91406,8.01562 -0.59378,2.15626 -1.41409,3.90626 -2.46094,5.25 -1.03127,1.32813 -2.25002,2.28125 -3.65625,2.85938 -1.40627,0.57812 -2.90627,0.86718 -4.5,0.86718 -1.60939,0 -3.10939,-0.28906 -4.5,-0.86718 -1.39063,-0.57813 -2.60157,-1.53125 -3.63281,-2.85938 -1.01563,-1.32812 -1.82032,-3.07031 -2.41407,-5.22656 -0.57812,-2.17187 -0.86719,-4.85155 -0.86718,-8.03906 -1e-5,-3.32811 0.28906,-6.07811 0.86718,-8.25 0.59375,-2.18748 1.40625,-3.92966 2.4375,-5.22657 1.03125,-1.29684 2.25,-2.20309 3.65625,-2.71875 1.40624,-0.53121 2.93749,-0.79684 4.59375,-0.79687 1.57811,3e-5 3.05467,0.26566 4.42969,0.79687 1.39061,0.51566 2.60154,1.42191 3.63281,2.71875 1.03123,1.29691 1.84373,3.03909 2.4375,5.22657 0.59373,2.17189 0.8906,4.92189 0.89063,8.25 m -4.28906,0 c -2e-5,-2.62498 -0.15627,-4.80467 -0.46875,-6.53907 -0.31252,-1.74997 -0.77346,-3.1406 -1.38282,-4.17187 -0.60939,-1.04685 -1.35939,-1.78122 -2.25,-2.20313 -0.87501,-0.43747 -1.87501,-0.65622 -3,-0.65625 -1.18751,3e-5 -2.23438,0.21878 -3.14062,0.65625 -0.90626,0.43753 -1.67188,1.17972 -2.29688,2.22657 -0.60938,1.03127 -1.07032,2.4219 -1.38281,4.17187 -0.3125,1.7344 -0.46875,3.90627 -0.46875,6.51563 0,2.53126 0.15625,4.66407 0.46875,6.39843 0.32812,1.73439 0.79687,3.13282 1.40625,4.19532 0.62499,1.04688 1.3828,1.80469 2.27344,2.27343 0.89061,0.45313 1.90624,0.67969 3.04687,0.67969 1.10936,0 2.10936,-0.22656 3,-0.67969 0.89061,-0.46874 1.64061,-1.22655 2.25,-2.27343 0.62498,-1.0625 1.10155,-2.46093 1.42969,-4.19532 0.34373,-1.73436 0.51561,-3.86717 0.51563,-6.39843" />
        <path
           id="path3752"
           d="m 231.2063,498.63611 c -2e-5,2.93752 -0.68752,5.20314 -2.0625,6.79687 -1.37501,1.57814 -3.4297,2.36721 -6.16406,2.36719 -2.62501,2e-5 -4.63282,-0.78123 -6.02344,-2.34375 -1.375,-1.5781 -2.0625,-3.85154 -2.0625,-6.82031 0,-1.42185 0.16406,-2.69529 0.49219,-3.82031 0.34374,-1.1406 0.85156,-2.10154 1.52343,-2.88282 0.6875,-0.79684 1.53906,-1.3984 2.55469,-1.80468 1.03125,-0.42185 2.23437,-0.63278 3.60938,-0.63282 1.45311,4e-5 2.68748,0.21097 3.70312,0.63282 1.03124,0.40628 1.87499,1.00003 2.53125,1.78125 0.65624,0.78128 1.1328,1.74221 1.42969,2.88281 0.31248,1.12503 0.46873,2.40627 0.46875,3.84375 m -3.49219,0 c -1e-5,-1.29685 -0.10157,-2.37497 -0.30469,-3.23438 -0.18751,-0.85934 -0.47657,-1.53903 -0.86718,-2.03906 -0.39064,-0.51559 -0.8672,-0.87497 -1.42969,-1.07812 -0.56251,-0.21872 -1.21876,-0.3281 -1.96875,-0.32813 -0.75001,3e-5 -1.42188,0.10941 -2.01563,0.32813 -0.57813,0.20315 -1.07031,0.56253 -1.47656,1.07812 -0.39063,0.51566 -0.6875,1.20315 -0.89062,2.0625 -0.20313,0.8594 -0.3047,1.92971 -0.30469,3.21094 -1e-5,1.31252 0.10937,2.39846 0.32812,3.25781 0.21875,0.8594 0.52344,1.5469 0.91407,2.0625 0.40624,0.51564 0.8828,0.87502 1.42968,1.07813 0.54687,0.20314 1.15625,0.3047 1.82813,0.30468 0.76561,2e-5 1.43749,-0.10154 2.01562,-0.30468 0.59374,-0.20311 1.09374,-0.56249 1.5,-1.07813 0.40624,-0.5156 0.71093,-1.2031 0.91407,-2.0625 0.21873,-0.85935 0.32811,-1.94529 0.32812,-3.25781" />
      </g>
    </g>
  </g>
</svg>
